<svg width="13" height="12" viewBox="0 0 13 12" fill="none" xmlns="http://www.w3.org/2000/svg">
<path d="M7.09086 2.92026C7.09086 1.31016 5.76529 0 4.13625 0C2.50721 0 1.18164 1.31016 1.18164 2.92026C1.18164 4.53035 2.50721 5.84051 4.13625 5.84051C5.76529 5.84051 7.09086 4.53035 7.09086 2.92026Z" fill="white"/>
<path d="M0 9.92869V11.7198H8.27291V9.92869C8.27291 7.67462 6.41705 5.84033 4.13646 5.84033C1.85587 5.84033 0 7.67462 0 9.92869Z" fill="white"/>
<path d="M12.9995 11.097C12.9995 9.48692 11.674 8.17676 10.0449 8.17676C9.73931 8.17676 9.45031 8.23608 9.17285 8.32155C9.34013 8.83138 9.454 9.36478 9.454 9.92891V11.72H12.9995V11.097Z" fill="white"/>
<path d="M12.41 5.8406C12.41 4.55219 11.3499 3.50439 10.0463 3.50439C8.74274 3.50439 7.68262 4.55219 7.68262 5.8406C7.68262 5.91497 7.69785 5.98524 7.70478 6.05779C8.28754 6.58283 8.75751 7.22361 9.05944 7.95657C9.36074 8.09452 9.69298 8.1768 10.0463 8.1768C11.3499 8.1768 12.41 7.12901 12.41 5.8406Z" fill="white"/>
</svg>
