<svg width="7" height="13" viewBox="0 0 7 13" fill="none" xmlns="http://www.w3.org/2000/svg">
<mask id="path-1-inside-1_225_439" fill="white">
<path d="M5.79052 6.48931L0.147077 12.1175C-0.0480217 12.3121 -0.0484491 12.628 0.146123 12.8232C0.340754 13.0182 0.656649 13.0187 0.851778 12.8241L6.84852 6.84357C7.04359 6.64897 7.04402 6.33304 6.84948 6.13791L0.868934 0.141165C0.670936 -0.0505764 0.355004 -0.0455059 0.163263 0.152492C-0.0237638 0.345642 -0.0241785 0.652239 0.162325 0.845865L5.79052 6.48931Z"/>
</mask>
<path d="M5.79052 6.48931L0.147077 12.1175C-0.0480217 12.3121 -0.0484491 12.628 0.146123 12.8232C0.340754 13.0182 0.656649 13.0187 0.851778 12.8241L6.84852 6.84357C7.04359 6.64897 7.04402 6.33304 6.84948 6.13791L0.868934 0.141165C0.670936 -0.0505764 0.355004 -0.0455059 0.163263 0.152492C-0.0237638 0.345642 -0.0241785 0.652239 0.162325 0.845865L5.79052 6.48931Z" fill="black"/>
<path d="M5.79052 6.48931L6.49667 7.19737L7.20473 6.49122L6.49858 5.78316L5.79052 6.48931ZM0.147077 12.1175L-0.559072 11.4094L-0.559125 11.4095L0.147077 12.1175ZM0.146123 12.8232L-0.561993 13.5293L-0.561781 13.5295L0.146123 12.8232ZM0.851778 12.8241L1.55782 13.5323L1.55793 13.5322L0.851778 12.8241ZM6.84852 6.84357L7.55467 7.55163L7.55478 7.55152L6.84852 6.84357ZM6.84948 6.13791L7.55765 5.43187L7.55754 5.43176L6.84948 6.13791ZM0.868934 0.141165L1.577 -0.564985L1.57085 -0.571147L1.5646 -0.577201L0.868934 0.141165ZM0.163263 0.152492L-0.555103 -0.543173L-0.55514 -0.543135L0.163263 0.152492ZM0.162325 0.845865L-0.557905 1.5396L-0.551876 1.54586L-0.545738 1.55201L0.162325 0.845865ZM5.79052 6.48931L5.08437 5.78125L-0.559072 11.4094L0.147077 12.1175L0.853227 12.8256L6.49667 7.19737L5.79052 6.48931ZM0.147077 12.1175L-0.559125 11.4095C-1.14521 11.9941 -1.14649 12.9431 -0.561993 13.5293L0.146123 12.8232L0.854239 12.1171C1.04959 12.313 1.04916 12.6301 0.85328 12.8255L0.147077 12.1175ZM0.146123 12.8232L-0.561781 13.5295C0.02278 14.1153 0.971636 14.1167 1.55782 13.5323L0.851778 12.8241L0.145734 12.1159C0.341663 11.9206 0.658727 11.9211 0.854027 12.1168L0.146123 12.8232ZM0.851778 12.8241L1.55793 13.5322L7.55467 7.55163L6.84852 6.84357L6.14237 6.1355L0.145628 12.116L0.851778 12.8241ZM6.84852 6.84357L7.55478 7.55152C8.14076 6.96695 8.14204 6.01803 7.55765 5.43187L6.84948 6.13791L6.14131 6.84396C5.946 6.64806 5.94643 6.33098 6.14227 6.13561L6.84852 6.84357ZM6.84948 6.13791L7.55754 5.43176L1.577 -0.564985L0.868934 0.141165L0.160871 0.847314L6.14141 6.84406L6.84948 6.13791ZM0.868934 0.141165L1.5646 -0.577201C0.969863 -1.15314 0.020847 -1.13792 -0.555103 -0.543173L0.163263 0.152492L0.881629 0.848157C0.689161 1.04691 0.372009 1.05199 0.173269 0.859531L0.868934 0.141165ZM0.163263 0.152492L-0.55514 -0.543135C-1.11687 0.036988 -1.11819 0.957916 -0.557905 1.5396L0.162325 0.845865L0.882555 0.15213C1.06983 0.346561 1.06934 0.654296 0.881666 0.848119L0.163263 0.152492ZM0.162325 0.845865L-0.545738 1.55201L5.08246 7.19546L5.79052 6.48931L6.49858 5.78316L0.870388 0.139716L0.162325 0.845865Z" fill="#677294" mask="url(#path-1-inside-1_225_439)"/>
</svg>
