<svg width="11" height="14" viewBox="0 0 11 14" fill="none" xmlns="http://www.w3.org/2000/svg">
<path d="M3.48828 12.2886C4.3127 13.4919 6.06258 13.4892 6.88521 12.2886H3.48828Z" fill="white"/>
<path d="M9.13646 7.89043C9.0202 7.77553 8.9371 7.63221 8.89464 7.47675C6.58767 7.97504 4.41826 6.2283 4.41826 3.91531C4.41826 2.33966 5.43494 0.994433 6.85391 0.486435C5.68969 -0.250469 4.14798 -0.160684 3.06821 0.828054C2.49074 1.35679 2.1304 2.07216 2.05321 2.84281C1.48291 7.5289 1.50845 7.31872 1.5077 7.32609C1.48679 7.53874 1.391 7.73915 1.23799 7.89041L0.503183 8.61664C0.17871 8.93732 0 9.36375 0 9.81736C0 10.7537 0.770701 11.5154 1.71803 11.5154H8.65634C9.60367 11.5154 10.3744 10.7537 10.3744 9.81736C10.3744 9.36375 10.1957 8.93732 9.87119 8.61664L9.13646 7.89043Z" fill="white"/>
<path d="M10.9999 3.91526C10.9999 2.13067 9.34455 0.761769 7.56008 1.09383C7.56089 1.09478 7.56169 1.09571 7.56008 1.09383C6.21787 1.34729 5.2002 2.51593 5.2002 3.91526C5.2002 5.76503 6.95779 7.14647 8.79142 6.70708C8.79116 6.70492 8.79129 6.706 8.79142 6.70708C10.0581 6.40277 10.9999 5.2595 10.9999 3.91526V3.91526ZM8.70611 4.94578C8.70611 5.15921 8.53105 5.33223 8.31511 5.33223C8.09918 5.33223 7.92412 5.15921 7.92412 4.94578V3.27118H7.55656C7.34063 3.27118 7.16557 3.09815 7.16557 2.88473C7.16557 2.67131 7.34063 2.49828 7.55656 2.49828H8.31511C8.53105 2.49828 8.70611 2.67131 8.70611 2.88473V4.94578Z" fill="white"/>
</svg>
