<svg width="12" height="13" viewBox="0 0 12 13" fill="none" xmlns="http://www.w3.org/2000/svg">
<path d="M8.35442 6.53108H5.38004C5.22503 6.53108 5.0892 6.4274 5.04833 6.27788C5.00746 6.12836 5.07167 5.96999 5.2051 5.89111C6.50103 5.12536 7.17418 4.2321 7.26297 3.16031C7.29393 2.78835 7.62523 2.49123 8.00131 2.49615C8.38506 2.50229 8.74457 2.65611 9.01383 2.92933C9.2833 3.2028 9.43181 3.56495 9.43195 3.94902C9.43195 3.94906 9.43195 3.94911 9.43195 3.94915V4.06469C9.43195 5.00289 9.15406 5.6011 8.64132 6.37678C8.57759 6.47314 8.46988 6.53108 8.35442 6.53108Z" fill="#FFC380"/>
<path d="M11.9997 6.92077C11.9997 6.32664 11.5163 5.84326 10.9221 5.84326H5.3801C5.31852 5.84326 5.25806 5.85978 5.20509 5.89113C4.81605 6.12115 4.42325 6.31051 4.10762 6.4627C3.99753 6.51577 3.89355 6.56591 3.79898 6.61318C3.68248 6.67144 3.60889 6.7905 3.60889 6.92077V11.3225C3.60889 11.4528 3.68248 11.5718 3.79898 11.6301C5.1885 12.3248 6.34354 12.4088 7.69045 12.4088C7.89903 12.4088 8.11234 12.4068 8.3317 12.4047C8.5743 12.4024 8.82512 12.4 9.08809 12.4H10.1752C10.7694 12.4 11.2528 11.9167 11.2528 11.3225C11.2528 11.1227 11.1981 10.9355 11.103 10.7749C11.4126 10.5854 11.6196 10.2441 11.6196 9.85526C11.6196 9.65549 11.5649 9.46826 11.4698 9.30769C11.7794 9.11818 11.9864 8.77683 11.9864 8.38801C11.9864 8.10856 11.8794 7.85362 11.7044 7.66198C11.895 7.46104 11.9997 7.19896 11.9997 6.92077Z" fill="#FFCF99"/>
<path d="M11.2845 3.92239H10.5509C10.361 3.92239 10.207 3.76841 10.207 3.5785C10.207 3.3886 10.361 3.23462 10.5509 3.23462H11.2845C11.4744 3.23462 11.6284 3.3886 11.6284 3.5785C11.6284 3.76841 11.4745 3.92239 11.2845 3.92239Z" fill="#29CCB1"/>
<path d="M6.14929 3.92239H5.41566C5.22576 3.92239 5.07178 3.76841 5.07178 3.5785C5.07178 3.3886 5.22576 3.23462 5.41566 3.23462H6.14929C6.3392 3.23462 6.49317 3.3886 6.49317 3.5785C6.49317 3.76841 6.33924 3.92239 6.14929 3.92239Z" fill="#29CCB1"/>
<path d="M7.25013 2.01608C7.13125 2.01608 7.01569 1.95441 6.95201 1.84409L6.58519 1.20874C6.49023 1.04428 6.54659 0.833943 6.71105 0.739001C6.87551 0.644037 7.08585 0.700398 7.18079 0.864858L7.5476 1.5002C7.64257 1.66466 7.58621 1.875 7.42175 1.96994C7.36761 2.00122 7.30845 2.01608 7.25013 2.01608Z" fill="#29CCB1"/>
<path d="M9.45054 2.0161C9.39219 2.0161 9.33306 2.00125 9.27892 1.96996C9.11446 1.875 9.0581 1.66468 9.15306 1.50022L9.51988 0.864878C9.61482 0.700418 9.82516 0.644012 9.98962 0.739022C10.1541 0.833986 10.2104 1.0443 10.1155 1.20876L9.74866 1.84411C9.68502 1.95443 9.5694 2.0161 9.45054 2.0161Z" fill="#29CCB1"/>
<path d="M2.82498 10.5936V12.4048H2.13721V10.5936C2.13721 10.4038 2.29128 10.2498 2.48109 10.2498C2.67091 10.2498 2.82498 10.4038 2.82498 10.5936Z" fill="#73C3FF"/>
<path d="M11.2845 3.92239H10.5509C10.361 3.92239 10.207 3.76841 10.207 3.5785C10.207 3.3886 10.361 3.23462 10.5509 3.23462H11.2845C11.4744 3.23462 11.6284 3.3886 11.6284 3.5785C11.6284 3.76841 11.4745 3.92239 11.2845 3.92239Z" fill="#29CCB1"/>
<path d="M6.14929 3.92239H5.41566C5.22576 3.92239 5.07178 3.76841 5.07178 3.5785C5.07178 3.3886 5.22576 3.23462 5.41566 3.23462H6.14929C6.3392 3.23462 6.49317 3.3886 6.49317 3.5785C6.49317 3.76841 6.33924 3.92239 6.14929 3.92239Z" fill="#29CCB1"/>
<path d="M7.25013 2.01608C7.13125 2.01608 7.01569 1.95441 6.95201 1.84409L6.58519 1.20874C6.49023 1.04428 6.54659 0.833943 6.71105 0.739001C6.87551 0.644037 7.08585 0.700398 7.18079 0.864858L7.5476 1.5002C7.64257 1.66466 7.58621 1.875 7.42175 1.96994C7.36761 2.00122 7.30845 2.01608 7.25013 2.01608Z" fill="#29CCB1"/>
<path d="M9.45054 2.0161C9.39219 2.0161 9.33306 2.00125 9.27892 1.96996C9.11446 1.875 9.0581 1.66468 9.15306 1.50022L9.51988 0.864878C9.61482 0.700418 9.82516 0.644012 9.98962 0.739022C10.1541 0.833986 10.2104 1.0443 10.1155 1.20876L9.74866 1.84411C9.68502 1.95443 9.5694 2.0161 9.45054 2.0161Z" fill="#29CCB1"/>
<path d="M2.82498 10.5936V12.4048H2.13721V10.5936C2.13721 10.4038 2.29128 10.2498 2.48109 10.2498C2.67091 10.2498 2.82498 10.4038 2.82498 10.5936Z" fill="#73C3FF"/>
<path d="M3.94829 5.84326H1.01381C0.823993 5.84326 0.669922 5.99733 0.669922 6.18715V12.0561C0.669922 12.2462 0.823993 12.4 1.01381 12.4044H3.21467C3.63626 12.4 4.00193 12.1568 4.1787 11.8032C4.25138 11.6586 4.29218 11.4951 4.29218 11.3225V6.18715C4.29218 5.99731 4.13811 5.84326 3.94829 5.84326Z" fill="#44A4EC"/>
<path d="M2.82498 10.5707V12.4048H2.13721V10.5707C2.13721 10.3809 2.29128 10.2268 2.48109 10.2268C2.67091 10.2268 2.82498 10.3809 2.82498 10.5707Z" fill="#73C3FF"/>
</svg>
