<svg width="20" height="21" viewBox="0 0 20 21" fill="none" xmlns="http://www.w3.org/2000/svg">
<path d="M3.19173 13.2195H11.2812C12.0532 11.9593 13.3164 11.0428 14.7957 10.7506V2.80652C14.7957 1.79023 13.9688 0.963379 12.9525 0.963379H11.6327V1.65556C11.6327 2.57233 10.8868 3.31822 9.97003 3.31822H4.82563C3.90886 3.31822 3.16297 2.57233 3.16297 1.65556V0.963379H1.84315C0.826849 0.963379 0 1.79023 0 2.80652V18.3764C0 19.3927 0.826849 20.2196 1.84315 20.2196H12.3333C11.1954 19.2206 10.4738 17.7418 10.4738 16.0945C10.4738 15.5209 10.5615 14.9679 10.7235 14.4483H3.19173C2.85242 14.4483 2.57733 14.1732 2.57733 13.8339C2.57733 13.4946 2.85242 13.2195 3.19173 13.2195ZM3.19173 5.95966H11.6048C11.9442 5.95966 12.2192 6.23474 12.2192 6.57405C12.2192 6.91336 11.9442 7.18845 11.6048 7.18845H3.19173C2.85242 7.18845 2.57733 6.91336 2.57733 6.57405C2.57733 6.23474 2.85242 5.95966 3.19173 5.95966ZM3.19173 8.37959H11.6048C11.9442 8.37959 12.2192 8.65468 12.2192 8.99399C12.2192 9.3333 11.9442 9.60838 11.6048 9.60838H3.19173C2.85242 9.60838 2.57733 9.3333 2.57733 8.99399C2.57733 8.65468 2.85242 8.37959 3.19173 8.37959ZM3.19173 10.7996H11.6048C11.9442 10.7996 12.2192 11.0747 12.2192 11.414C12.2192 11.7533 11.9442 12.0284 11.6048 12.0284H3.19173C2.85242 12.0284 2.57733 11.7533 2.57733 11.414C2.57733 11.0747 2.85242 10.7996 3.19173 10.7996Z" fill="white"/>
<path d="M15.8138 11.8799C13.5472 11.8799 11.7031 13.7706 11.7031 16.0946C11.7031 18.4186 13.5472 20.3092 15.8138 20.3092C18.0805 20.3092 19.9246 18.4186 19.9246 16.0946C19.9246 13.7706 18.0805 11.8799 15.8138 11.8799ZM17.5342 18.3979C17.4239 18.4803 17.2949 18.5201 17.1671 18.5201C16.9798 18.5201 16.795 18.4349 16.6743 18.2733L15.3216 16.4622C15.2423 16.3561 15.1995 16.2271 15.1995 16.0946V14.7828C15.1995 14.4435 15.4746 14.1684 15.8139 14.1684C16.1532 14.1684 16.4282 14.4434 16.4282 14.7827V15.8904L17.6588 17.538C17.8618 17.8099 17.8061 18.1949 17.5342 18.3979Z" fill="white"/>
<path d="M9.96991 0H4.82551C4.58625 0 4.3916 0.194644 4.3916 0.433912V1.65572C4.3916 1.89499 4.58625 2.08963 4.82551 2.08963H9.96991C10.2092 2.08963 10.4038 1.89499 10.4038 1.65572V0.433912C10.4038 0.194644 10.2091 0 9.96991 0Z" fill="white"/>
</svg>
