<svg width="9" height="9" viewBox="0 0 9 9" fill="none" xmlns="http://www.w3.org/2000/svg">
<path d="M4.45458 8.90916C6.91478 8.90916 8.90916 6.91478 8.90916 4.45458C8.90916 1.99438 6.91478 0 4.45458 0C1.99438 0 0 1.99438 0 4.45458C0 6.91478 1.99438 8.90916 4.45458 8.90916Z" fill="#FFD93B"/>
<path d="M8.90901 4.45467C8.90901 6.91583 6.91419 8.90925 4.45443 8.90925C3.05402 8.90925 1.80395 8.26334 0.986816 7.25131C1.75106 7.86939 2.7241 8.23828 3.78346 8.23828C6.24322 8.23828 8.23804 6.24486 8.23804 3.7837C8.23804 2.72435 7.86914 1.7513 7.25107 0.987061C8.2617 1.8042 8.90901 3.05426 8.90901 4.45467Z" fill="#F4C534"/>
<path d="M4.45463 7.71908C4.88532 7.71908 5.23446 7.36994 5.23446 6.93925C5.23446 6.50857 4.88532 6.15942 4.45463 6.15942C4.02395 6.15942 3.6748 6.50857 3.6748 6.93925C3.6748 7.36994 4.02395 7.71908 4.45463 7.71908Z" fill="white"/>
<path d="M6.96093 4.35281C6.96093 4.90852 6.50712 5.3601 5.95141 5.3601C5.3957 5.3601 4.94189 4.90852 4.94189 4.35281C4.94189 3.79487 5.3957 3.34106 5.95141 3.34106C6.50712 3.34106 6.96093 3.79487 6.96093 4.35281Z" fill="white"/>
<path d="M5.95029 4.8188C6.20815 4.8188 6.41719 4.60976 6.41719 4.35191C6.41719 4.09405 6.20815 3.88501 5.95029 3.88501C5.69243 3.88501 5.4834 4.09405 5.4834 4.35191C5.4834 4.60976 5.69243 4.8188 5.95029 4.8188Z" fill="white"/>
<path d="M6.20304 4.30717C6.16128 4.33473 6.09501 4.31274 6.05687 4.25761C6.01873 4.20248 6.02319 4.13539 6.06495 4.10782C6.10671 4.08026 6.17297 4.10226 6.21111 4.15738C6.24758 4.21251 6.24508 4.2796 6.20304 4.30717Z" fill="white"/>
<path d="M7.21374 3.07142C7.24659 3.2354 7.23852 3.39465 7.19592 3.54305C6.99825 2.99235 6.42834 2.65046 5.83533 2.75737L5.82809 2.75876C5.61566 2.79802 5.50179 2.52017 5.68666 2.40685C5.83366 2.31665 6.00878 2.26124 6.19921 2.25595C6.68476 2.24315 7.11936 2.59645 7.21374 3.07142Z" fill="#E9B02C"/>
<path d="M1.94824 4.35281C1.94824 4.90852 2.40205 5.3601 2.95776 5.3601C3.51347 5.3601 3.96728 4.90852 3.96728 4.35281C3.96728 3.79487 3.51347 3.34106 2.95776 3.34106C2.40205 3.34106 1.94824 3.79487 1.94824 4.35281Z" fill="white"/>
<path d="M2.95859 4.8188C3.21645 4.8188 3.42549 4.60976 3.42549 4.35191C3.42549 4.09405 3.21645 3.88501 2.95859 3.88501C2.70074 3.88501 2.4917 4.09405 2.4917 4.35191C2.4917 4.60976 2.70074 4.8188 2.95859 4.8188Z" fill="white"/>
<path d="M2.70598 4.30717C2.74774 4.33473 2.814 4.31274 2.85214 4.25761C2.89028 4.20248 2.88583 4.13539 2.84407 4.10782C2.80231 4.08026 2.73604 4.10226 2.6979 4.15738C2.66143 4.21251 2.66394 4.2796 2.70598 4.30717Z" fill="white"/>
<path d="M1.69502 3.07142C1.66217 3.2354 1.67024 3.39493 1.71284 3.54305C1.91051 2.99235 2.48042 2.65046 3.07343 2.75737L3.08067 2.75876C3.2931 2.79802 3.40697 2.52017 3.2221 2.40685C3.0751 2.31665 2.89998 2.26124 2.70955 2.25595C2.224 2.24315 1.7894 2.59645 1.69502 3.07142Z" fill="#E9B02C"/>
</svg>
